<?xml version="1.0" encoding="UTF-8" standalone="no"?>
<!-- Created with Inkscape (http://www.inkscape.org/) -->

<svg
   xmlns:dc="http://purl.org/dc/elements/1.1/"
   xmlns:cc="http://creativecommons.org/ns#"
   xmlns:rdf="http://www.w3.org/1999/02/22-rdf-syntax-ns#"
   xmlns:svg="http://www.w3.org/2000/svg"
   xmlns="http://www.w3.org/2000/svg"
   xmlns:sodipodi="http://sodipodi.sourceforge.net/DTD/sodipodi-0.dtd"
   xmlns:inkscape="http://www.inkscape.org/namespaces/inkscape"
   id="svg2"
   version="1.1"
   inkscape:version="0.91 r13725"
   xml:space="preserve"
   width="1500"
   height="1500"
   viewBox="0 0 1500 1500"
   sodipodi:docname="ubiq.svg"><metadata
     id="metadata8"><rdf:RDF><cc:Work
         rdf:about=""><dc:format>image/svg+xml</dc:format><dc:type
           rdf:resource="http://purl.org/dc/dcmitype/StillImage" /><dc:title></dc:title></cc:Work></rdf:RDF></metadata><defs
     id="defs6"><clipPath
       clipPathUnits="userSpaceOnUse"
       id="clipPath34"><path
         d="m 0,1200 1920,0 L 1920,0 0,0 0,1200 Z"
         id="path36"
         inkscape:connector-curvature="0" /></clipPath><clipPath
       clipPathUnits="userSpaceOnUse"
       id="clipPath72"><path
         d="m 0,1200 1920,0 L 1920,0 0,0 0,1200 Z"
         id="path74"
         inkscape:connector-curvature="0" /></clipPath></defs><sodipodi:namedview
     pagecolor="#ffffff"
     bordercolor="#666666"
     borderopacity="1"
     objecttolerance="10"
     gridtolerance="10"
     guidetolerance="10"
     inkscape:pageopacity="0"
     inkscape:pageshadow="2"
     inkscape:window-width="1873"
     inkscape:window-height="1056"
     id="namedview4"
     showgrid="false"
     inkscape:zoom="0.13041667"
     inkscape:cx="-99.680478"
     inkscape:cy="1056.7092"
     inkscape:window-x="47"
     inkscape:window-y="24"
     inkscape:window-maximized="1"
     inkscape:current-layer="g10" /><g
     id="g10"
     inkscape:groupmode="layer"
     inkscape:label="ubiq v2"
     transform="matrix(1.25,0,0,-1.25,0,1500)"><g
       id="g4172"
       transform="matrix(1.4677765,0,0,1.4677765,-304.34284,-573.04028)"><g
         transform="matrix(1.5368611,0,0,1.5368611,284.48053,673.45605)"
         id="g14"><path
           inkscape:connector-curvature="0"
           id="path16"
           style="fill:#0ca579;fill-opacity:1;fill-rule:nonzero;stroke:none"
           d="m 0,0 149.456,-89.981 0,204.207 L 0,0 Z" /></g><g
         transform="matrix(1.5368611,0,0,1.5368611,638.39613,1179.4868)"
         id="g18"><path
           inkscape:connector-curvature="0"
           id="path20"
           style="fill:#00ea90;fill-opacity:1;fill-rule:nonzero;stroke:none"
           d="m 0,0 0,-196.574 -230.285,-132.689 0,199.633 L 0,0 Z" /></g><g
         transform="matrix(1.5368611,0,0,1.5368611,947.78164,924.93386)"
         id="g22"><path
           inkscape:connector-curvature="0"
           id="path24"
           style="fill:#333333;fill-opacity:1;fill-rule:nonzero;stroke:none"
           d="m 0,0 -149.457,89.975 0,-204.201 L 0,0 Z" /></g><g
         transform="matrix(1.5368611,0,0,1.5368611,593.86619,418.90406)"
         id="g26"><path
           inkscape:connector-curvature="0"
           id="path28"
           style="fill:#494949;fill-opacity:1;fill-rule:nonzero;stroke:none"
           d="m 0,0 0,196.574 230.285,132.688 0,-199.632 L 0,0 Z" /></g></g></g></svg>