<?xml version="1.0" encoding="UTF-8" standalone="no"?>
<svg
   xmlns:dc="http://purl.org/dc/elements/1.1/"
   xmlns:cc="http://creativecommons.org/ns#"
   xmlns:rdf="http://www.w3.org/1999/02/22-rdf-syntax-ns#"
   xmlns:svg="http://www.w3.org/2000/svg"
   xmlns="http://www.w3.org/2000/svg"
   xmlns:sodipodi="http://sodipodi.sourceforge.net/DTD/sodipodi-0.dtd"
   xmlns:inkscape="http://www.inkscape.org/namespaces/inkscape"
   viewBox="0 0 300 325"
   height="325"
   width="300"
   xml:space="preserve"
   id="svg2"
   version="1.1"
   sodipodi:docname="octano.svg"
   inkscape:version="0.92.4 (unknown)"><sodipodi:namedview
   pagecolor="#ffffff"
   bordercolor="#666666"
   borderopacity="1"
   objecttolerance="10"
   gridtolerance="10"
   guidetolerance="10"
   inkscape:pageopacity="0"
   inkscape:pageshadow="2"
   inkscape:window-width="1920"
   inkscape:window-height="1026"
   id="namedview69"
   showgrid="false"
   showguides="true"
   inkscape:guide-bbox="true"
   inkscape:zoom="0.44547727"
   inkscape:cx="226.85866"
   inkscape:cy="48.916985"
   inkscape:window-x="1920"
   inkscape:window-y="27"
   inkscape:window-maximized="1"
   inkscape:current-layer="svg2"><sodipodi:guide
     position="-126.19048,373.80952"
     orientation="1,0"
     id="guide352"
     inkscape:locked="false" /><sodipodi:guide
     position="741.26984,142.85714"
     orientation="1,0"
     id="guide354"
     inkscape:locked="false" /></sodipodi:namedview><metadata
   id="metadata8"><rdf:RDF><cc:Work
       rdf:about=""><dc:format>image/svg+xml</dc:format><dc:type
         rdf:resource="http://purl.org/dc/dcmitype/StillImage" /><dc:title /></cc:Work></rdf:RDF></metadata><defs
   id="defs6"><clipPath
     id="clipPath20"
     clipPathUnits="userSpaceOnUse"><path
       id="path18"
       d="M 0,400 H 600 V 0 H 0 Z"
       inkscape:connector-curvature="0" /></clipPath></defs><g
   id="g342"
   transform="matrix(1.3379073,0,0,1.3379073,-385.16282,-194.27556)"><g
     id="g290"><path
       id="path24"
       style="fill:#6fceb7;fill-opacity:1;fill-rule:nonzero;stroke:none;stroke-width:1.33333325"
       d="m 387.69159,232.06027 c -4.75867,-0.51067 -30.24133,-6.788 -30.24133,-6.788 l 25.84133,0.85733 -15.99067,-6.24533 23.64267,1.46267 c 0,0 -17.21867,-4.592 -31.18533,-8.99334 -13.96667,-4.4 -14.732,-11.47866 -14.732,-11.47866 l -7.14267,1.33866 c 0,0 -28.57066,5.35734 -31.12133,8.164 -2.55067,2.80534 3.512,6.632 15.148,10.71334 11.63733,4.08133 56.024,13.26533 64.952,14.28533 8.928,1.02133 38.26533,-5.612 38.26533,-5.612 l 42.34533,-9.43867 c 0,0 -75.024,12.24534 -79.78133,11.73467"
       inkscape:connector-curvature="0" /><path
       id="path28"
       style="fill:#6fceb7;fill-opacity:1;fill-rule:nonzero;stroke:none;stroke-width:1.33333325"
       d="m 383.67386,198.96147 c -4.78267,-1.244 -7.46133,-2.77467 -11.40933,-6.06267 3.144,0.14934 6.296,0.10667 9.43466,-0.124 -3.056,-2.27466 -6.11333,-4.54933 -9.17066,-6.824 3.27066,0.15467 6.56133,-0.132 9.756,-0.85066 -3.04934,-2.54267 -5.98,-5.22667 -8.78,-8.04 2.81066,-0.42267 5.588,-1.06934 8.29733,-1.932 -2.32133,-1.916 -4.90133,-3.51734 -7.64933,-4.74667 3.53333,0.13733 7.08933,-0.32667 10.468,-1.36533 -1.68667,-2.28534 -3.58267,-4.41467 -5.65867,-6.35334 2.82,0.072 5.63867,0.144 8.45867,0.216 -2.69467,-2.24533 -3.556,-3.13866 -6.42534,-4.86 3.868,-0.15333 6.12267,-0.192 10.264,-0.64133 -2.276,-1.79867 -3.12666,-2.456 -5.48133,-4.42933 2.91733,-0.19334 4.28,-0.33467 8.89733,-0.52534 -2.248,-1.72266 -2.89333,-1.99866 -5.13466,-3.75333 6.56933,-1.41333 7.82933,-1.45867 15.68933,-3.08667 0,0 -23.08667,-2.67866 -40.688,13.00934 -17.60267,15.68933 -18.368,34.056 -18.368,34.056 29.27333,16.45333 71.556,9.56533 86.81067,4.656 -37.832,4.90933 -49.04134,1.68533 -49.31067,1.65733"
       inkscape:connector-curvature="0" /><path
       id="path32"
       style="fill:#6fceb7;fill-opacity:1;fill-rule:nonzero;stroke:none;stroke-width:1.33333325"
       d="m 289.16053,336.64987 c 0,0 79.33466,31.12133 101.784,51.27467 l -45.66267,-46.68267 c 0,0 -14.17733,-14.78667 -17.092,-22.95867 0,0 -1,-8.13733 11.668,-22.95733 -6.10533,2.424 -10.19333,5.888 -20.636,13.50533 7.056,-8.56933 10.156,-13.51333 19.48534,-22.18266 -10.788,4.17466 -11.36267,5.85466 -22.57867,13.57066 7.38533,-8.85866 10.28667,-12.52533 18.16933,-21.50133 -9.02933,3.09467 -9.93466,4.108 -21.77333,8.87067 8.26133,-8.26134 9.37867,-9.54534 19.21333,-17.36267 -9.34,3.26533 -12.47733,5.056 -20.888,8.81733 4.548,-4.964 10.05067,-10.05066 16.53867,-16.48666 -10.848,5.13467 -25.76533,15.232 -39.504,34.55333 l 29.84667,19.89733 c 0,0 -22.448,9.94934 -28.57067,19.64267"
       inkscape:connector-curvature="0" /><path
       id="path48"
       style="fill:#6fceb7;fill-opacity:1;fill-rule:nonzero;stroke:none;stroke-width:1.33333325"
       d="m 346.98106,247.38147 6.78,4.004 c 2.03733,-5.27333 6.464,-9.34933 11.95333,-10.90933 l -12.55333,-2.58667 c -2.76667,0.73467 -5.284,2.42667 -6.948,4.76133 1.64267,0.0173 3.28533,0.0333 4.928,0.0507 -1.76133,-0.0187 -3.56133,3.09467 -4.16,4.68"
       inkscape:connector-curvature="0" /><path
       id="path52"
       style="fill:#6fceb7;fill-opacity:1;fill-rule:nonzero;stroke:none;stroke-width:1.33333325"
       d="m 370.65892,276.02867 c -9.972,0 -18.05733,-8.05467 -18.12,-18.012 l -5.61333,-4.44933 c 1.17333,7.23866 2.60933,14.74 3.96266,18.18266 3.02534,7.69467 13.56134,17.68134 13.56134,17.68134 0,0 6.20933,-3.212 9.412,-5.66 4.424,-3.384 8.07466,-9.1 10.628,-14.168 -3.324,3.92666 -8.28267,6.42533 -13.83067,6.42533"
       inkscape:connector-curvature="0" /><path
       id="path56"
       style="fill:#6fceb7;fill-opacity:1;fill-rule:nonzero;stroke:none;stroke-width:1.33333325"
       d="m 341.79239,247.91507 c 0,0 -6.77067,-2.68133 -8.044,2.248 -1.272,4.92933 3.244,19.01733 7.73067,23.66933 0,0 -12.55334,-7.088 -11.78,-23.66933 0.772,-16.58133 12.09333,-2.248 12.09333,-2.248"
       inkscape:connector-curvature="0" /><path
       id="path60"
       style="fill:#6fceb7;fill-opacity:1;fill-rule:nonzero;stroke:none;stroke-width:1.33333325"
       d="m 341.77586,264.07174 c -0.19067,0.40933 -0.36933,0.87333 -0.22267,1.3 0.092,0.26533 0.3,0.47333 0.508,0.66267 1.00534,0.90933 2.20534,1.6 3.496,2.012 -0.65733,-2.79467 -1.14,-4.47734 -1.86933,-7.13467 -0.81867,0.87467 -1.40533,2.07067 -1.912,3.16"
       inkscape:connector-curvature="0" /><path
       id="path76"
       style="fill:#6fceb7;fill-opacity:1;fill-rule:nonzero;stroke:none;stroke-width:1.33333325"
       d="m 389.90919,252.5936 c -0.54,-0.79067 -1.04267,-1.54 -1.51467,-2.24133 0.44534,3.11466 0.63467,6.23066 0.26534,9.31066 0.0307,-0.0947 0.052,-0.15866 0.052,-0.15866 l -1.728,11.28 c 2.63333,2.79466 3.96,7.004 3.96,7.004 -2.32667,-1.82267 -4.62267,-2.67867 -4.62267,-2.67867 0,0 -6.99467,4.77467 -1.15733,7.18 5.83866,2.40533 8.11466,7.64933 10.02133,10.47333 3.54667,5.256 1.112,-15.9 -0.444,-27.588 -0.6,-4.51466 -2.26533,-8.81866 -4.832,-12.58133"
       inkscape:connector-curvature="0" /><path
       id="path80"
       style="fill:#6fceb7;fill-opacity:1;fill-rule:nonzero;stroke:none;stroke-width:1.33333325"
       d="m 393.89359,297.5368 c -6.048,-10.10133 -8.916,-10.72533 -14.568,-10.70267 -5.65067,0.024 -10.57333,7.088 -20.144,10.13067 -9.572,3.044 -16.02933,1.14133 -16.02933,1.14133 0,0 3.904,4.64667 13.97866,3.42667 10.076,-1.22 20.008,-4.568 20.008,-4.568 l -9.97066,6.836 17.028,-6.836 -5.6,6.836 11.49333,-6.836 z"
       inkscape:connector-curvature="0" /><path
       id="path84"
       style="fill:#6fceb7;fill-opacity:1;fill-rule:nonzero;stroke:none;stroke-width:1.33333325"
       d="m 347.97839,276.716 v 17.00133 l 3.26667,-3.38 0.69066,5.53334 2.324,-0.55334 -1.57866,-9.576 -2.79067,2.71867 z"
       inkscape:connector-curvature="0" /><path
       id="path100"
       style="fill:#6fceb7;fill-opacity:1;fill-rule:nonzero;stroke:none;stroke-width:1.33333325"
       d="m 353.17852,305.3732 -10.02667,11.46 10.82667,-5.73067 c 0,0 -6.796,16.544 -10.46,19.096 0,0 10.24,-3.28666 15.01333,-6.748 l -5.22266,14.84667 10.904,-5.55067 -3.39867,14.31334 9.44533,-7.92934 v 15.86 l 10.36667,-7.38266 1.752,18.59333 8.10933,-10.664 7.96534,25.16133 0.33733,-59.556 -5.748,12.192 -1.02933,-14.94 -4.12,11.43867 -6.27867,-13.376 -0.83067,10.916 -9.188,-15.71067 1.25867,11.88134 -8.75067,-13.124 1.272,10.39066 z"
       inkscape:connector-curvature="0" /><path
       id="path104"
       style="fill:#6fceb7;fill-opacity:1;fill-rule:nonzero;stroke:none;stroke-width:1.33333325"
       d="m 397.01332,303.80107 -24.67467,4.704 h 24.67467 z"
       inkscape:connector-curvature="0" /></g><g
     id="g309"><path
       id="path36"
       style="fill:#e76754;fill-opacity:1;fill-rule:nonzero;stroke:none;stroke-width:1.33333325"
       d="m 415.05066,149.02641 c 0,0 24.872,8.036 32.14267,37.88133 0,0 -13.01067,-28.50666 -32.14267,-37.88133"
       inkscape:connector-curvature="0" /><path
       id="path40"
       style="fill:#e76754;fill-opacity:1;fill-rule:nonzero;stroke:none;stroke-width:1.33333325"
       d="m 488.31692,207.3452 c -1.10667,-2.39733 -3.60533,-2.996 -5.98267,-3.55733 -13.364,-3.15067 -22.32266,-6.548 -27.52,-3.828 -4.20666,2.2 -10.54266,7.87733 -16.624,11.468 5.46,-1.19867 12.88534,-5.43067 18.156,-8.032 0.17867,-0.088 0.35334,0.12933 0.224,0.28133 -2.572,3.004 -7.096,7.15733 -9.37733,9.82533 6.696,-3.06133 11.892,-6.28666 17.23867,-8.41866 -3.39867,3.776 -5.76,5.45333 -9.68134,8.80133 5.552,-2.41467 11.21067,-4.432 16.38267,-7.58 -2.03867,3.452 -4.58,6.60533 -7.51867,9.33067 13.616,-7.68267 20.12134,-9.78667 24.70267,-8.29067"
       inkscape:connector-curvature="0" /><path
       id="path44"
       style="fill:#e76754;fill-opacity:1;fill-rule:nonzero;stroke:none;stroke-width:1.33333325"
       d="m 482.26865,312.0364 29.84667,-19.89733 c -12.56667,-19.62534 -31.28934,-30.70934 -42.13734,-35.844 2.78134,1.844 5.53067,4.10533 8.12267,6.47333 v 0.001 c 19.47733,16.85867 24.016,31.356 24.016,31.356 l -30.77867,20.408 c 0,0 17.62934,7.20267 29.10934,17.81334 l -47.80134,24.788 c 28.28667,-13.72267 58.19334,-25.456 58.19334,-25.456 -6.12267,-9.69334 -28.57067,-19.64267 -28.57067,-19.64267"
       inkscape:connector-curvature="0" /><path
       id="path64"
       style="fill:#e76754;fill-opacity:1;fill-rule:nonzero;stroke:none;stroke-width:1.33333325"
       d="m 373.07252,270.3736 c 5.86133,-1.128 10.292,-6.27867 10.292,-12.46933 0,-0.37867 -0.024,-0.752 -0.056,-1.12267 z"
       inkscape:connector-curvature="0" /><path
       id="path68"
       style="fill:#e76754;fill-opacity:1;fill-rule:nonzero;stroke:none;stroke-width:1.33333325"
       d="m 381.49892,251.30054 -15.02267,18.58933 c 1.15867,0.404 2.39067,0.64267 3.67334,0.69334 3.66,-4.696 9.636,-12.384 12.66,-16.39467 -0.31334,-1.02667 -0.76267,-1.99067 -1.31067,-2.888"
       inkscape:connector-curvature="0" /><path
       id="path72"
       style="fill:#e76754;fill-opacity:1;fill-rule:nonzero;stroke:none;stroke-width:1.33333325"
       d="m 362.08906,267.26454 c 3.052,-3.696 13.79733,-16.74267 15.9,-19.728 -2.072,-1.468 -4.59733,-2.33867 -7.33067,-2.33867 -7.016,0 -12.70533,5.68934 -12.70533,12.70534 0,3.71066 1.6,7.03866 4.136,9.36133"
       inkscape:connector-curvature="0" /><path
       id="path88"
       style="fill:#e76754;fill-opacity:1;fill-rule:nonzero;stroke:none;stroke-width:1.33333325"
       d="m 454.79039,247.91507 c 0,0 6.77067,-2.68133 8.044,2.248 1.272,4.92933 -3.244,19.01733 -7.73067,23.66933 0,0 12.552,-7.088 11.78,-23.66933 -0.772,-16.58133 -12.09333,-2.248 -12.09333,-2.248"
       inkscape:connector-curvature="0" /><path
       id="path92"
       style="fill:#e76754;fill-opacity:1;fill-rule:nonzero;stroke:none;stroke-width:1.33333325"
       d="m 454.80692,264.07174 c 0.19067,0.40933 0.36933,0.87333 0.22267,1.3 -0.092,0.26533 -0.29867,0.47333 -0.508,0.66267 -1.00534,0.90933 -2.20534,1.6 -3.496,2.012 0.65733,-2.79467 1.14,-4.47734 1.86933,-7.13467 0.81867,0.87467 1.40533,2.07067 1.912,3.16"
       inkscape:connector-curvature="0" /><path
       id="path96"
       style="fill:#e76754;fill-opacity:1;fill-rule:nonzero;stroke:none;stroke-width:1.33333325"
       d="m 448.60439,276.716 v 17.00133 l -3.26667,-3.38 -0.69066,5.53334 -2.324,-0.55334 1.57866,-9.576 2.79067,2.71867 z"
       inkscape:connector-curvature="0" /><path
       id="path108"
       style="fill:#e76754;fill-opacity:1;fill-rule:nonzero;stroke:none;stroke-width:1.33333325"
       d="m 414.61412,267.27734 c 3.052,-3.696 13.79733,-16.74133 15.9,-19.72667 -2.072,-1.468 -4.59733,-2.34 -7.33067,-2.34 -7.016,0 -12.70533,5.68934 -12.70533,12.70534 0,3.71066 1.6,7.03866 4.136,9.36133"
       inkscape:connector-curvature="0" /><path
       id="path112"
       style="fill:#e76754;fill-opacity:1;fill-rule:nonzero;stroke:none;stroke-width:1.33333325"
       d="m 434.02399,251.31334 -15.02267,18.58933 c 1.15867,0.404 2.39067,0.64267 3.67334,0.69334 3.66,-4.696 9.636,-12.384 12.66,-16.39467 -0.31334,-1.02667 -0.76267,-1.99067 -1.31067,-2.888"
       inkscape:connector-curvature="0" /><path
       id="path116"
       style="fill:#e76754;fill-opacity:1;fill-rule:nonzero;stroke:none;stroke-width:1.33333325"
       d="m 425.59759,270.3864 c 5.86133,-1.128 10.292,-6.27867 10.292,-12.46933 0,-0.37867 -0.024,-0.752 -0.056,-1.12267 z"
       inkscape:connector-curvature="0" /><path
       id="path120"
       style="fill:#e76754;fill-opacity:1;fill-rule:nonzero;stroke:none;stroke-width:1.33333325"
       d="m 412.50346,290.32134 c 6.42533,0.27333 14.62933,6.97333 20.508,8.61333 5.87867,1.64134 13.09333,2.17067 18.852,-0.82933 0,0 -6.45733,1.90267 -16.02933,-1.14 -9.572,-3.044 -14.49334,-10.108 -20.144,-10.13067 -5.652,-0.0227 -8.52,0.60134 -14.568,10.70267 0,0 4.956,-7.48933 11.38133,-7.216"
       inkscape:connector-curvature="0" /><path
       id="path124"
       style="fill:#e76754;fill-opacity:1;fill-rule:nonzero;stroke:none;stroke-width:1.33333325"
       d="m 406.12319,292.28094 10.75467,6.016 -7.312,-7.02533 1.82533,-0.63067 11.78933,8.732 -8.48933,-9.94133 -4.83067,-0.796 -3.008,2.00533 z"
       inkscape:connector-curvature="0" /><path
       id="path128"
       style="fill:#e76754;fill-opacity:1;fill-rule:nonzero;stroke:none;stroke-width:1.33333325"
       d="m 443.60226,311.10294 10.82533,5.72933 -10.02533,-11.45866 -4.66933,6.456 2.58933,8.70666 -6.432,-3.392 v 12.14267 l -7.18,-4.04667 2.07867,15.30267 -6.09334,-6.49067 -2.36266,14.89067 -7.60267,-5.58267 0.71733,20.23867 3.55467,-14.53333 8.31867,5.924 v -14.21867 l 9.69066,7.32533 -3.88,-16.344 11.14,6.54534 -4.56133,-15.3 c 4.77333,3.46133 14.352,7.2 14.352,7.2 -3.66533,-2.552 -10.46,-19.09467 -10.46,-19.09467"
       inkscape:connector-curvature="0" /><path
       id="path132"
       style="fill:#e76754;fill-opacity:1;fill-rule:nonzero;stroke:none;stroke-width:1.33333325"
       d="m 406.82946,275.76054 -2.52933,-8.496 c -0.13734,7.02133 -2.84134,13.83333 -2.84134,13.83333 0,0 3.55467,-2.39733 5.98667,-3.08133 2.432,-0.684 3.46533,3.08133 3.46533,3.08133 1.25067,-4.79066 -4.08133,-5.33733 -4.08133,-5.33733"
       inkscape:connector-curvature="0" /><path
       id="path136"
       style="fill:#e76754;fill-opacity:1;fill-rule:nonzero;stroke:none;stroke-width:1.33333325"
       d="m 452.64626,228.478 1.24133,7.00533 h -5.28266 l 1.62933,9.04267 -7.572,3.64267 c 0,0 -4.93333,-5.7 -11.29067,-6.52 0,0 7.80134,4.09866 9.61867,11.69066 l 9.604,-6.81333 1.26933,7.04133 1.19067,-15.67733 h 6.116 z"
       inkscape:connector-curvature="0" /></g></g>

</svg>